<?xml version="1.0" encoding="utf-8"?>
<!-- Generator: Adobe Illustrator 21.1.0, SVG Export Plug-In . SVG Version: 6.00 Build 0)  -->
<svg version="1.1" id="Layer_1" xmlns="http://www.w3.org/2000/svg" xmlns:xlink="http://www.w3.org/1999/xlink" x="0px" y="0px"
	 viewBox="0 0 792 612" style="enable-background:new 0 0 792 612;" xml:space="preserve">
<style type="text/css">
	.st0{font-family:'Superclarendon-Regular';}
	.st1{font-size:91.1077px;}
	.st2{font-family:'CenturyGothic';}
	.st3{font-size:63.9795px;}
</style>
<g>
	<path d="M205.4,141.8c0,0-4.5,28.9,8.9,27.3c-12.4,38.1-2.2,38.1-1.6,48.1c0.8,13.5-0.6,46.3-0.6,50.6s7,15.5,12.7,15.5
		c5.7,0,6.6-1.3,5.5-5.6c-2-2.3-4.8,4.7-8.5,0.4s-3.9-7.5-4.5-16c-0.6-7.7,3.6-29.4,3.6-29.4s15.7,6.5,27.3,5.9
		c5.8-0.3,14.8-10.5,17-21.1c2.3-11-1.1-19.5-1.1-19.5s3.2,0.2,8.3-0.2c2.4-0.2,4.5-2.6,5.1-3.7c0.6-1.2-9.8,1.1-13.1,0.7
		c-6.8-0.9-5.1,6.3-5.1,6.3s5.2,32.4-13.6,31.4c-10.3-0.6-18.6-3-22.2-5.7c-3-2.2-4-9.1-4-9.1l-3.7-9.7c0,0,34.3-0.9,32-8.7
		c-0.7-2.4-13.3,2.6-17.5,2.7c-9.2,0.4-11.9,2.8-13.3-0.7s0-14.3,0.9-21.3c0.9-7,5.1-14.9,9.9-16.8c4.8-1.9,11.3-0.4,11.3-0.4
		s5.7,13.7,10.7,18.6c5,4.8,22.7-0.3,31.9,3.3c5.9,2.4,15.2,11.7,21.1,18c3.2,3.5,4.6,6.9,7.1,7.5c2.5,0.6,20.3-13.1,19.4-15.4
		c-0.9-2.2-11.1,0.4-21.4-1.2c-10.3-1.6-18.5-12.8-28.1-14.7c-9.6-1.8-21.5-1.9-25.9-5s-6.7-7.2-8.4-14.2c-0.4-1.8,0.9-5.4,3.1-7.5
		c6.6-6.3,7.6-7.3,21.4-11.4c13.7-4.1,42.6-7.3,42.6-7.3l-8.1-3.1c0,0-31.5,2.8-41.2,7.2c-9.7,4.4-18.7,11.1-18.7,11.1
		c0-8.3-2.7-10.1-2.7-10.1c-7,5.8-3.4,19.6-3.4,19.6s-17.2-4.5-21,3.3C213.2,153.7,206.6,139.5,205.4,141.8z"/>
	<path d="M228.3,262.2c-1.9,0-0.8,6.6-4,7.8c-3.2,1.2,4.1,3.2,5.6,2.1C231.3,271,230.1,262.2,228.3,262.2z"/>
	<path d="M285.4,240.9c0,0-18.6-5-24.1-4.1c-5.5,0.9-10.1,5.4-12.2,13.4c-0.7,2.6-1.5,8.8-0.3,11.9c2.7,6.7,5.3,6.5,11.3,12.7
		c2.8,2.9,4.2,8.3,5.1,13.5c1.1,5.8,1.1,11.2,4.2,16.4c3.1,5.1,11,4.7,11,4.7s6.5,9.5,12.2,10.9c5.6,1.5,16.3,0,16.3,0
		s2.3-2.4,0-6.2s-6.6,1.2-11.2-0.5c-4.6-1.6-4.4-9.4-9.3-11.3c-4.9-2-11-0.1-13.3-2.6s0-19.8-6.3-27.8c-4.4-5.6-6.5-6.6-9.8-11.6
		c-1.4-2.1-3.5-5.7-3.7-7.5c-0.2-1.5,1.3-5.9,3.7-6.8c7.4-2.6,16.2,0.1,20.2,0.2C283.1,246.3,285.4,240.9,285.4,240.9z"/>
	<path d="M316.2,248c-4,0,1.6,17.9,9,26.1c3.1,3.5,8.4,4.1,12.5,4.1c4.4,0,8.1-3,11.4-5.8c7-6,8.7-16.6,5.9-17.5
		c-2.8-0.9-9.9,17.1-18.6,14S320.2,248,316.2,248z"/>
	<path d="M339.2,231.9c0,0-36.6-5.4-40.7,2.2c-1.3,2.5-1.4,7.8-1,14c0.9,12.7-1,29.4-1,29.4s5.7,21.4,17.4,18.1
		c11.3,3.1,9.6,8,3.6,10.3c-6,2.3-9.8-0.3-12.1-2.2c-2.3-1.9-1.7-5.4-5.3-8.7c-3.6-3.2-5.9-4.2-8.7-9.3s0-35.1,0-35.1
		s-5-7.1-1.6-18.6c3.4-11.5,48.6-6.1,48.6-6.1L339.2,231.9z"/>
	<path d="M342.4,291.4c0,0,8.4,4.9,21.6,7c8.8,1.4,19.8,1.6,32-1.6c12.3-3.3,20.4-5.6,28.7-4.6c12.3,1.4,24.8,7.6,24.8,7.6
		s-14.3-16-26.9-16.1s-35.8,8.5-42.7,9.1C352,295.4,342.4,291.4,342.4,291.4z"/>
	<path d="M516.8,244.6c0,0,23.2-4.8,37,9.6c23,24,12.7,47.8,21.7,63.4c5.2,8.9,20.8,8.1,20.8,8.1s-22.4,6.2-31.1-6.2
		c-8.7-12.4-5-37.5-18.9-56.4C537.9,251.8,516.8,244.6,516.8,244.6z"/>
	<path d="M525.8,258.3c0,0,16.9,7.5,23.3,23.4c3.7,9.3,2.5,19.8,5.5,34.1c2.1,10.2,6.2,18.2,8.7,19.9c5.8,4,17.5,4.6,17.5,4.6
		s-17.1,7.2-27.5-2.8c-11-10.5-6.1-36.3-10.2-49.3C539.1,275.1,525.8,258.3,525.8,258.3z"/>
	<path d="M523.9,277.4c0,0,11.5,9,15.6,22.6c4.4,15-0.7,25.2-0.4,37.4c0.2,8.7,14.3,19.5,14.3,19.5s-15.3,0.8-21-13.1
		c-2.8-6.8,4.3-35.6-0.4-48.9S523.9,277.4,523.9,277.4z"/>
	<path d="M494.5,225.9c0,4.1,13.7,16.9,15.3,37.2c1.7,20.3-0.4,39.6,1.1,45.6c0.7,2.8,2.4,8.3,4.2,14.7c2.1,7.5,3.3,18.1,4.6,17.5
		c2.4-1.1,1.5-9,0.8-13.8c-0.7-4.7-1.5-12.3-3.7-19.9s2.9-27.7,0.4-47C514.7,241,494.5,221.7,494.5,225.9z"/>
	<path d="M454.7,277.4c-4.6,0-2.4,40.1,5.4,43.6c12.4,11.9,37.3,59.7,43.9,59.7c6.6,0-9.5-16.6-9.5-16.6s-27.1-46-34-53.8
		C455.6,304.8,459.2,277.4,454.7,277.4z"/>
	<path d="M408.5,297.9c0,0-14.9,21.9,0,29.4c18.4,9.2,53.6,37,53.6,37s15.5,7.3,12.4,0c-1-2.3-2.2,0.2-9.8-5
		c-16.6-11.5-46.6-33.7-52.3-38.1c-8.3-6.5,6.3-25.5,6.3-25.5L408.5,297.9z"/>
	<path d="M349.5,283.4c10.1,2.1,43.1-9.1,61.3-67.5c12.3,0.5,46.5,6.4,50.5,1.6c2.3-2.7,3.3-5.8,3.3-5.8c1.9-4.6-9.1-21-14-22.3
		c-5-1.2,8.7,15,3.3,17.6c-5.4,2.7-10,3.3-40.6-2.7s-33.1-36.4-37.2-36.4s-7,26.5,23.3,44.7C396.7,267.3,339.4,281.3,349.5,283.4z"
		/>
	<path d="M380.6,160c0,0,9.1,1.4,11,16.2c1.9,14.9,14.9,14.9,14.9,14.9s-8.4-6.2-9.8-20.7C395.4,155.8,380.6,160,380.6,160z"/>
	<path d="M427.3,181.5c8.7,2.3,12.9,16.3,15,24c0.8,3.1,5.6,1.8,4.8-1.3c-2.6-9.4-7.7-24.6-18.5-27.5
		C425.6,175.9,424.2,180.7,427.3,181.5L427.3,181.5z"/>
	<path d="M423.3,139.3c0,10.9-1.4,20.3-5.5,30.4c-1.2,3,3.6,4.2,4.8,1.3c4.4-10.7,5.7-20.2,5.7-31.7
		C428.3,136.1,423.3,136.1,423.3,139.3L423.3,139.3z"/>
	<path d="M430.7,120.3c-2.6-7.9-7.4-15.3-15.6-18.1c-10.1-3.5-21.7,4.7-31.5,0.2c-2.9-1.3-5.4,3-2.5,4.3c5.3,2.4,13,1.8,18.6,1.1
		c4.8-0.6,8.9-2.3,13.7-0.7c6.5,2.3,10.5,8.2,12.6,14.5C426.9,124.7,431.7,123.4,430.7,120.3L430.7,120.3z"/>
	<path d="M285,126.6c6.4-28,35.3,4.6,44,14.2c2.9,3.2,5,7,8.5,9.4c5.9,4.1,15.5,4.3,22.4,6.1c3.1,0.8,4.4-4,1.3-4.8
		c-11.9-3.1-20.3-4.8-28.7-14.2c-6.7-7.6-13.9-15.9-22.4-21.7c-13.1-8.8-26.2-6.5-29.9,9.7C279.5,128.4,284.3,129.7,285,126.6
		L285,126.6z"/>
	<path d="M341.6,84.3c-3-7.2-14.8-10.5-21.8-8.7c-10.3,2.6-14.1,11.9-15.6,21.5c-0.5,3.1,4.3,4.5,4.8,1.3c0.8-5.3,1.6-10.7,5.9-14.5
		c4.7-4.2,18.7-5.9,22,1.8C338,88.5,342.8,87.3,341.6,84.3L341.6,84.3z"/>
	<path d="M306.9,100.8c7.9,0.1,16.1,1.2,24-0.4c3.1-0.6,1.8-5.4-1.3-4.8c-7.3,1.5-15.3,0.3-22.6,0.2
		C303.7,95.8,303.7,100.8,306.9,100.8L306.9,100.8z"/>
	<path d="M312.8,92.1c0,9.2,0.2,28,13,27.6c3.2-0.1,3.2-5.1,0-5c-8.6,0.2-8.1-17-8.1-22.7C317.7,88.9,312.8,88.9,312.8,92.1
		L312.8,92.1z"/>
	<path d="M305,98.9c0,11.4,1,13.7,13,13.7c3.2,0,3.2-5,0-5c-1,0-7.1,0.2-8.1-0.9c-0.9-1.1,0-6.6,0-7.8C310,95.7,305,95.7,305,98.9
		L305,98.9z"/>
	<path d="M340.4,103c5.3,0,10.1,0.2,14.7,3.1c2.6,1.6,4.5,3,7.6,3.8c6.3,1.5,13.6,1.2,19.3-1.9c2.8-1.6,0.3-5.8-2.5-4.3
		c-9.3,5.2-17.2-0.3-25.4-4c-4.5-2-8.9-1.6-13.8-1.6C337.2,98,337.2,103,340.4,103L340.4,103z"/>
	<path d="M346.9,98.1c-9.2,2.5-7.1,21-7.1,28.2c0,3.2,5,3.2,5,0c0-4-1.7-22,3.5-23.4C351.3,102.1,350,97.3,346.9,98.1L346.9,98.1z"
		/>
	<path d="M360.6,117c-8.4,0-9.7,4.7-9.7,13.2c0,3.6,0.2,5.5,2.4,8.3c0.8,1.1,2.5,1.4,2.9,2.4c1.1,2.5,0,8.7,0,11.5c0,3.2,5,3.2,5,0
		c0-4.9,1.1-10.8-0.8-15.3c-0.3-0.8-1.6-0.7-2-1.3c-2.8-4-5.4-13.9,2.2-13.9C363.8,121.9,363.8,117,360.6,117L360.6,117z"/>
	<path d="M374.3,145.2c6,0,13,1.2,18.7-1.2c6.4-2.6,11.9-8.1,16.9-12.6c2.4-2.2-1.2-5.7-3.5-3.5c-4,3.7-8.5,8.2-13.5,10.5
		c-5.7,2.7-12.5,1.8-18.6,1.8C371.1,140.3,371.1,145.2,374.3,145.2L374.3,145.2z"/>
	<path d="M411.4,185.6c-4.3-15.3-10.2-37.1-2.1-52.1c1.5-2.8-2.8-5.3-4.3-2.5c-8.9,16.4-3.1,39.1,1.6,56
		C407.5,190,412.3,188.7,411.4,185.6L411.4,185.6z"/>
	<path d="M414.3,193.3c7.8-4.6,12.7-11.6,14.8-20.4c0.8-3.1-4-4.4-4.8-1.3c-1.8,7.4-6,13.6-12.5,17.5
		C409.1,190.7,411.6,195,414.3,193.3L414.3,193.3z"/>
	<path d="M413.4,193.1c6.9,9.2,12.9,18.2,17.2,28.9c3.4,8.5,4.4,15.4,4.8,24.6c0.1,2.8,0.2,9,1.8,11.2c3.2,4.3,7.6,1.6,11.1-0.8
		c8.8-6.1,11.3-12.4,14.3-22.2c0.9-3.1-3.9-4.4-4.8-1.3c-1.2,3.8-12.3,27.7-17.2,16.6c-2.8-6.4-0.5-17-2.9-24.1
		c-4.5-13.5-11.6-24.1-20.1-35.4C415.8,188,411.5,190.5,413.4,193.1L413.4,193.1z"/>
	<path d="M272.3,236.4c15.3-16.5,28.3-35.2,39.2-54.9c8.9-16,10.5-34.7,13.3-52.5c0.5-3.1-4.3-4.5-4.8-1.3
		c-2.7,17.4-4.5,35.4-12.8,51.3c-10,19.3-23.6,38-38.4,53.8C266.6,235.3,270.1,238.8,272.3,236.4L272.3,236.4z"/>
	<path d="M264.9,160.8c9.6,0.1,19.8-1.4,29.2-0.2c11.2,1.4,18.9,8.2,28.2,13.6c11,6.4,18.5,4.4,27.3-3.8c2.3-2.2-1.2-5.7-3.5-3.5
		c-7.8,7.4-20.3,3.2-28.4-1.8c-5-3-10.3-6.1-15.8-7.9c-11.6-3.8-25-1.2-37-1.3C261.7,155.8,261.7,160.7,264.9,160.8L264.9,160.8z"/>
	<path d="M310.6,139.7c6.8-0.1,9.7,2.1,14.9,5.7c1.2,0.8,2.4,1.6,3.7,2.2c5.8,2.8,12.4,3.2,18.8,3.3c3.2,0.1,3.2-4.9,0-5
		c-9.6-0.2-15.3-2.6-23.1-7.7c-4.8-3.1-8.4-3.6-14.2-3.5C307.4,134.8,307.4,139.8,310.6,139.7L310.6,139.7z"/>
	<text transform="matrix(1 0 0 1 21.2324 459.2183)" class="st0 st1">ROYAL RIDGE</text>
	<text transform="matrix(1 0 0 1 118.3975 517.2867)" class="st2 st3">Equestrian Center</text>
</g>
</svg>
